<?xml version="1.0" standalone="no"?>
<!DOCTYPE svg PUBLIC "-//W3C//DTD SVG 20010904//EN"
 "http://www.w3.org/TR/2001/REC-SVG-20010904/DTD/svg10.dtd">
<svg version="1.0" xmlns="http://www.w3.org/2000/svg"
 width="500.000000pt" height="500.000000pt" viewBox="0 0 500.000000 500.000000"
 preserveAspectRatio="xMidYMid meet">

<g transform="translate(0.000000,500.000000) scale(0.100000,-0.100000)"
fill="#7B4F34" stroke="none">
<path d="M1891 3314 c-87 -23 -188 -83 -267 -157 -76 -71 -96 -106 -74 -132
20 -24 49 -18 90 18 64 54 168 71 262 42 101 -30 139 -53 348 -210 126 -94
248 -165 330 -192 249 -81 495 5 761 264 113 110 130 141 90 163 -32 17 -39
13 -115 -59 -80 -76 -127 -104 -213 -126 -125 -33 -243 -10 -376 72 -42 27
-137 90 -212 141 -163 112 -227 147 -319 173 -85 23 -225 25 -305 3z m312 -98
c75 -28 182 -88 251 -141 83 -63 235 -164 287 -191 66 -33 188 -64 253 -64
l51 0 -30 -18 c-71 -41 -181 -66 -272 -59 -145 9 -229 48 -443 207 -167 124
-237 169 -300 194 -56 23 -145 45 -185 46 l-30 2 34 14 c111 49 270 53 384 10z"/>
<path d="M1160 2251 l0 -341 145 0 c218 0 318 30 394 117 60 68 83 139 79 244
-4 108 -40 185 -111 239 -83 64 -121 73 -324 78 l-183 4 0 -341z m350 223
c161 -48 212 -268 92 -390 -50 -51 -106 -68 -222 -68 l-105 -1 -3 238 -2 237
93 0 c57 0 115 -6 147 -16z"/>
<path d="M2062 2409 c-24 -12 -49 -30 -55 -40 -18 -29 -27 -23 -27 16 l0 35
-47 0 -48 0 0 -255 0 -255 50 0 50 0 3 153 c3 117 7 160 20 186 25 51 59 72
120 73 l52 1 0 54 0 53 -37 0 c-21 0 -57 -10 -81 -21z"/>
<path d="M2395 2418 c-51 -18 -96 -58 -116 -105 -10 -25 -19 -47 -19 -49 0 -2
22 -4 49 -4 41 0 51 4 56 20 12 39 53 60 117 60 51 0 62 -4 83 -26 16 -17 25
-39 25 -59 l0 -32 -97 -12 c-127 -15 -166 -27 -203 -64 -30 -29 -35 -50 -32
-117 3 -47 17 -71 57 -98 49 -34 158 -33 222 3 25 14 47 25 49 25 2 0 4 -11 4
-25 0 -24 3 -25 53 -25 l53 0 -3 123 c-8 301 -7 292 -36 330 -44 58 -175 85
-262 55z m195 -303 c0 -84 -94 -150 -178 -124 -53 15 -67 45 -44 90 15 29 25
36 72 46 30 6 76 12 103 12 44 1 47 -1 47 -24z"/>
<path d="M3003 2408 c-24 -11 -43 -24 -43 -29 0 -19 -19 -8 -22 14 -3 19 -10
22 -55 25 l-53 3 0 -345 0 -346 55 0 54 0 0 78 c0 42 0 97 0 121 l1 44 23 -20
c39 -36 69 -46 137 -46 102 0 162 38 211 133 31 62 32 185 3 250 -55 119 -198
174 -311 118z m141 -82 c49 -20 86 -88 86 -155 0 -65 -18 -109 -59 -144 -27
-23 -42 -27 -91 -27 -52 0 -64 4 -94 31 -83 73 -71 233 21 287 44 25 90 28
137 8z"/>
<path d="M3570 2417 c-49 -16 -133 -102 -148 -153 -7 -23 -12 -68 -12 -101 0
-160 92 -256 245 -256 86 0 142 25 185 85 41 56 39 68 -12 68 -33 0 -49 -6
-73 -29 -38 -37 -93 -53 -140 -40 -35 10 -95 61 -95 82 0 7 -3 22 -6 35 l-6
22 192 0 193 0 -6 50 c-9 78 -28 127 -63 169 -62 71 -160 98 -254 68z m175
-111 c18 -19 35 -46 37 -60 l5 -26 -137 0 -137 0 5 26 c2 14 20 41 39 60 31
31 39 34 95 34 56 0 63 -3 93 -34z"/>
</g>
</svg>
